<?xml version="1.0" standalone="no"?>
<!DOCTYPE svg PUBLIC "-//W3C//DTD SVG 20010904//EN"
 "http://www.w3.org/TR/2001/REC-SVG-20010904/DTD/svg10.dtd">
<svg version="1.0" xmlns="http://www.w3.org/2000/svg"
 width="200.000000pt" height="200.000000pt" viewBox="0 0 200.000000 200.000000"
 preserveAspectRatio="xMidYMid meet">

<g transform="translate(0.000000,200.000000) scale(0.100000,-0.100000)"
fill="#000000" stroke="none">
<path d="M1107 1975 c-139 -49 -160 -220 -38 -302 41 -28 117 -31 168 -6 81
38 114 156 65 235 -42 68 -124 99 -195 73z"/>
<path d="M800 1502 l-215 -107 -88 -165 c-92 -174 -99 -199 -60 -242 19 -21
71 -24 96 -5 9 6 46 68 83 137 36 69 70 130 76 137 11 13 139 86 143 81 2 -2
-24 -167 -56 -368 -63 -394 -67 -436 -44 -480 17 -34 77 -57 120 -46 58 15 79
52 116 199 18 75 36 137 40 137 4 0 53 -52 109 -115 136 -153 151 -165 206
-165 56 0 79 12 99 50 20 39 19 89 -4 125 -10 17 -84 103 -165 192 l-146 162
31 88 c17 48 35 94 39 102 5 9 23 -16 56 -79 27 -51 58 -99 69 -106 34 -22
330 -75 359 -64 49 18 61 82 24 125 -19 21 -44 29 -154 51 l-131 26 -79 161
c-109 222 -162 278 -261 276 -40 -1 -84 -18 -263 -107z m554 -875 c28 -21 12
-59 -22 -55 -30 3 -41 30 -22 53 15 18 21 19 44 2z m-494 -58 c14 -26 -4 -51
-34 -47 -24 4 -33 33 -16 53 17 21 37 19 50 -6z"/>
<path d="M537 458 l-138 -61 -24 23 c-21 20 -31 22 -71 16 -26 -3 -49 -8 -51
-9 -4 -5 135 -326 153 -355 16 -24 46 -29 62 -9 6 7 14 61 18 120 7 107 7 108
-20 136 l-26 28 122 38 c68 21 133 42 146 46 l23 9 -20 26 c-12 15 -21 33 -21
40 0 19 2 20 -153 -48z"/>
<path d="M1211 341 c-17 -80 -34 -160 -37 -177 -4 -23 -14 -34 -40 -43 -28
-10 -36 -20 -47 -59 l-14 -47 200 -3 c211 -3 231 1 225 42 -2 15 -31 36 -100
73 -85 47 -99 52 -123 43 -15 -6 -30 -8 -33 -6 -3 4 61 221 84 280 3 9 -9 18
-39 28 l-45 15 -31 -146z"/>
</g>
</svg>
