<?xml version="1.0" standalone="no"?>
<!DOCTYPE svg PUBLIC "-//W3C//DTD SVG 20010904//EN"
 "http://www.w3.org/TR/2001/REC-SVG-20010904/DTD/svg10.dtd">
<svg version="1.0" xmlns="http://www.w3.org/2000/svg"
 width="225.000000pt" height="225.000000pt" viewBox="0 0 225.000000 225.000000"
 preserveAspectRatio="xMidYMid meet">

<g transform="translate(0.000000,225.000000) scale(0.100000,-0.100000)"
fill="#000000" stroke="none">
<path d="M1847 2210 c-14 -11 -40 -45 -57 -75 l-31 -55 -85 0 c-47 0 -94 -5
-105 -11 -15 -7 -24 -7 -34 1 -9 7 -69 10 -192 7 -213 -5 -162 -5 -377 0
l-179 4 -28 -27 -29 -28 0 -169 c0 -92 4 -177 10 -187 7 -14 3 -26 -22 -56
-40 -50 -93 -163 -113 -239 -28 -109 -17 -272 26 -371 17 -42 17 -42 -6 -64
-38 -35 -57 -86 -50 -128 l6 -38 -180 -167 c-100 -92 -181 -174 -181 -181 0
-17 26 -39 39 -34 6 1 80 68 166 147 86 79 167 153 181 164 l26 20 39 -39 39
-39 -225 -245 c-288 -313 -285 -310 -334 -310 -31 0 -44 6 -60 26 -36 46 -28
83 29 139 54 53 63 87 24 93 -31 4 -109 -70 -129 -123 -51 -132 89 -255 212
-187 17 9 145 139 283 289 248 269 251 272 285 266 47 -8 79 2 119 38 33 28
36 29 68 16 18 -8 56 -19 84 -26 l52 -12 4 -56 c4 -48 10 -61 37 -85 l33 -29
170 3 170 3 24 28 c22 26 24 36 24 135 l0 106 60 57 60 57 115 4 c165 4 160
-2 159 226 -1 97 -2 186 -2 197 0 11 2 97 4 192 l5 171 104 4 c97 3 107 5 130
29 14 14 28 41 31 60 5 30 -9 58 -130 261 -75 125 -146 234 -158 242 -31 22
-80 20 -111 -4z m206 -260 c73 -124 126 -223 125 -235 -3 -19 -12 -20 -269
-23 -229 -2 -268 0 -279 13 -11 13 4 43 90 188 157 261 168 279 188 275 10 -2
70 -92 145 -218z m-949 64 c13 -5 16 -22 16 -83 l0 -76 -89 -28 c-60 -18 -113
-43 -162 -76 l-74 -49 -3 145 c-2 99 1 150 9 159 9 11 44 14 149 14 76 0 145
-3 154 -6z m404 -6 c8 -8 12 -49 12 -120 l0 -109 -27 15 c-50 25 -157 53 -230
61 l-73 7 0 73 c0 49 4 75 13 78 27 12 293 7 305 -5z m200 -10 c-8 -13 -39
-63 -69 -113 l-54 -90 -3 99 c-2 64 1 103 9 112 7 9 32 14 71 14 60 0 60 0 46
-22z m-366 -227 c250 -64 412 -259 425 -511 9 -170 -42 -305 -162 -425 -142
-142 -334 -195 -527 -146 -103 27 -165 60 -239 128 -78 72 -121 139 -155 240
-68 202 -11 429 146 577 143 134 328 184 512 137z m563 -316 l0 -160 -30 -3
c-30 -3 -31 -2 -47 69 -17 72 -58 166 -99 227 l-21 33 98 -3 99 -3 0 -160z m3
-392 l-3 -158 -77 -3 -77 -3 29 63 c35 75 60 167 60 220 0 37 1 38 35 38 l36
0 -3 -157z m-1218 -182 c0 -15 120 -139 156 -162 33 -20 34 -22 18 -40 -33
-36 -63 -24 -146 58 -80 80 -91 103 -61 135 17 19 33 24 33 9z m826 -358 c-5
-11 -37 -13 -163 -11 l-158 3 -3 43 -3 42 36 0 c55 0 185 29 240 54 l50 22 3
-69 c2 -39 1 -76 -2 -84z"/>
<path d="M1881 2036 c-7 -9 -11 -41 -9 -82 2 -52 7 -69 21 -78 28 -17 47 17
47 82 0 79 -28 116 -59 78z"/>
<path d="M1879 1804 c-9 -11 -10 -20 -3 -32 15 -23 29 -25 48 -7 12 12 13 21
6 36 -13 23 -33 25 -51 3z"/>
<path d="M1090 1724 c-253 -67 -419 -313 -381 -566 30 -201 183 -370 382 -423
257 -69 535 91 614 352 17 56 19 119 5 128 -27 16 -49 -7 -60 -63 -34 -168
-147 -296 -303 -344 -105 -31 -228 -23 -322 22 -258 123 -332 448 -156 679 41
54 136 119 208 141 237 73 492 -58 559 -287 14 -49 18 -53 46 -53 30 0 31 1
25 40 -16 120 -141 278 -267 337 -114 54 -238 67 -350 37z"/>
<path d="M1143 1444 c-44 -22 -80 -79 -63 -99 19 -23 46 -18 64 10 38 57 112
54 136 -6 18 -41 5 -77 -36 -101 -38 -22 -64 -63 -64 -101 0 -47 54 -45 63 1
3 16 18 34 37 46 44 25 70 72 70 126 0 107 -109 172 -207 124z"/>
<path d="M1184 1046 c-10 -26 4 -48 28 -44 17 2 23 10 23 28 0 18 -6 26 -23
28 -13 2 -25 -3 -28 -12z"/>
<path d="M336 1734 c-12 -12 -16 -38 -16 -114 0 -125 5 -130 131 -130 83 0 89
1 108 26 17 22 21 41 21 110 0 116 -8 124 -134 124 -73 0 -98 -4 -110 -16z
m174 -109 l0 -65 -65 0 -65 0 0 65 0 65 65 0 65 0 0 -65z"/>
<path d="M1637 422 c-13 -15 -17 -39 -17 -110 0 -125 7 -132 130 -132 123 0
130 7 130 133 0 123 -4 127 -132 127 -79 0 -98 -3 -111 -18z m173 -107 l0 -65
-65 0 -65 0 0 65 0 65 65 0 65 0 0 -65z"/>
</g>
</svg>
