<?xml version="1.0" standalone="no"?>
<!DOCTYPE svg PUBLIC "-//W3C//DTD SVG 20010904//EN"
 "http://www.w3.org/TR/2001/REC-SVG-20010904/DTD/svg10.dtd">
<svg version="1.0" xmlns="http://www.w3.org/2000/svg"
 width="320.000000pt" height="320.000000pt" viewBox="0 0 320.000000 320.000000"
 preserveAspectRatio="xMidYMid meet">

<g transform="translate(0.000000,320.000000) scale(0.100000,-0.100000)"
fill="#000000" stroke="none">
<path d="M222 2761 c-70 -24 -118 -65 -156 -131 l-31 -55 0 -970 0 -970 22
-41 c36 -67 70 -101 131 -131 l57 -28 1334 -3 c1474 -3 1395 -6 1482 61 23 17
56 57 73 87 l31 55 0 970 0 970 -31 55 c-17 30 -50 70 -73 87 -86 66 -8 63
-1465 63 -1253 -1 -1324 -2 -1374 -19z m2723 -206 l25 -24 0 -926 0 -926 -25
-24 -24 -25 -468 0 -468 0 -12 74 c-16 100 -65 222 -124 310 -57 86 -192 216
-272 265 -157 93 -363 140 -562 127 -337 -21 -606 -190 -749 -471 l-36 -70 0
837 0 837 26 20 27 21 1319 0 1319 0 24 -25z m-1685 -1360 c203 -49 368 -171
454 -334 38 -73 66 -159 66 -203 l0 -28 -700 0 c-666 0 -700 1 -700 18 0 41
33 140 73 216 54 104 154 207 252 258 169 88 380 116 555 73z"/>
<path d="M1800 2295 l0 -95 103 -2 c218 -5 569 -5 715 0 l152 5 0 93 0 94
-485 0 -485 0 0 -95z"/>
<path d="M935 2359 c-152 -53 -259 -170 -300 -324 -42 -161 5 -324 127 -441
65 -64 125 -98 203 -118 158 -42 313 -2 435 111 169 156 198 394 72 589 -48
74 -106 123 -198 166 -62 29 -80 33 -174 35 -86 3 -116 0 -165 -18z m237 -185
c106 -36 178 -137 178 -252 0 -137 -83 -235 -222 -263 -110 -22 -228 38 -282
143 -108 212 100 449 326 372z"/>
<path d="M1804 1987 c-3 -8 -4 -52 -2 -98 l3 -84 483 -3 482 -2 0 100 0 100
-480 0 c-391 0 -482 -2 -486 -13z"/>
<path d="M1800 1505 l0 -95 295 0 295 0 0 95 0 95 -295 0 -295 0 0 -95z"/>
</g>
</svg>
